<svg width="24" height="27" viewBox="0 0 24 27" fill="none" xmlns="http://www.w3.org/2000/svg">
<path d="M4.629 1L1 5.839V22.774C1 23.4156 1.25486 24.0308 1.70851 24.4845C1.93313 24.7091 2.1998 24.8873 2.49329 25.0089C2.78678 25.1304 3.10133 25.193 3.419 25.193H20.355C20.9966 25.193 21.6118 24.9381 22.0655 24.4845C22.5191 24.0308 22.774 23.4156 22.774 22.774V5.839L19.145 1H4.629Z" stroke="black" stroke-width="2" stroke-linecap="round" stroke-linejoin="round"/>
<path d="M1 5.83899H22.774" stroke="black" stroke-width="2" stroke-linecap="round" stroke-linejoin="round"/>
<path d="M16.7249 10.677C16.7066 11.9482 16.1888 13.1612 15.2834 14.0536C14.378 14.9461 13.1577 15.4464 11.8864 15.4464C10.615 15.4464 9.39475 14.9461 8.48934 14.0536C7.58394 13.1612 7.06613 11.9482 7.04785 10.677" stroke="black" stroke-width="2" stroke-linecap="round" stroke-linejoin="round"/>
</svg>
